<svg width="151" height="57" viewBox="0 0 151 57" fill="none" xmlns="http://www.w3.org/2000/svg">
<path d="M1.598 24.118C1.47667 24.118 1.338 24.0573 1.182 23.936C1.026 23.8147 0.948 23.6847 0.948 23.546C0.948 23.39 1.12133 22.9913 1.468 22.35C1.81467 21.7087 2.36933 20.7467 3.132 19.464C3.89467 18.1813 4.89133 16.5173 6.122 14.472L9.528 8.778C9.71867 8.43133 9.95267 8.024 10.23 7.556C10.5073 7.088 10.8453 6.53333 11.244 5.892C11.348 5.736 11.4607 5.658 11.582 5.658C11.7033 5.658 11.8247 5.71867 11.946 5.84C12.0673 5.944 12.128 6.05667 12.128 6.178C12.128 6.24733 11.6947 7.01867 10.828 8.492C9.96133 9.948 8.65267 12.1233 6.902 15.018C6.24333 16.11 5.524 17.3147 4.744 18.632C3.98133 19.9493 3.16667 21.3793 2.3 22.922C7.32667 21.57 11.192 20.894 13.896 20.894C14.7107 20.894 15.3867 21.0327 15.924 21.31C16.4787 21.57 16.756 21.83 16.756 22.09C16.756 22.3847 16.6087 22.532 16.314 22.532C16.0713 22.532 15.95 22.402 15.95 22.142V22.064C15.7767 21.9773 15.482 21.908 15.066 21.856C14.65 21.804 14.1733 21.778 13.636 21.778C12.9773 21.778 12.232 21.8387 11.4 21.96C10.568 22.064 9.71867 22.2027 8.852 22.376C8.00267 22.532 7.20533 22.6967 6.46 22.87C5.732 23.026 5.03867 23.1907 4.38 23.364C3.73867 23.5547 3.14067 23.7193 2.586 23.858C2.25667 23.9273 2.014 23.988 1.858 24.04C1.71933 24.092 1.63267 24.118 1.598 24.118ZM21.283 23.468C20.555 23.468 19.983 23.2167 19.567 22.714C19.151 22.2113 18.943 21.596 18.943 20.868C18.943 19.62 19.359 18.3373 20.191 17.02C20.4164 16.656 20.6764 16.3007 20.971 15.954C21.2657 15.59 21.5864 15.2433 21.933 14.914C22.453 14.4113 22.999 13.9953 23.571 13.666C24.143 13.3367 24.6977 13.172 25.235 13.172C26.119 13.172 26.561 13.588 26.561 14.42C26.561 15.46 25.9544 16.4047 24.741 17.254C23.6144 18.0167 22.505 18.398 21.413 18.398C21.2224 18.398 21.049 18.3893 20.893 18.372C20.7544 18.3373 20.6244 18.3027 20.503 18.268C20.3297 18.5973 20.1737 19.022 20.035 19.542C19.8964 20.062 19.827 20.5127 19.827 20.894C19.827 22.038 20.3297 22.61 21.335 22.61C22.1497 22.61 22.921 22.4713 23.649 22.194C24.377 21.8993 25.2437 21.3533 26.249 20.556C26.873 20.0707 27.341 19.6807 27.653 19.386C27.965 19.0913 28.303 18.7793 28.667 18.45C28.771 18.3807 28.8664 18.346 28.953 18.346C29.0397 18.346 29.1264 18.372 29.213 18.424C29.2997 18.476 29.343 18.554 29.343 18.658C29.343 18.8487 29.1697 19.1173 28.823 19.464C28.5284 19.7413 28.2164 20.036 27.887 20.348C27.5577 20.6427 27.0377 21.0587 26.327 21.596C25.5644 22.1853 24.7324 22.6447 23.831 22.974C22.9297 23.3033 22.0804 23.468 21.283 23.468ZM21.257 17.566C21.8117 17.566 22.3404 17.4793 22.843 17.306C23.3457 17.1327 23.8224 16.8813 24.273 16.552C25.2784 15.8067 25.781 15.1047 25.781 14.446C25.781 14.1513 25.599 14.004 25.235 14.004C24.5417 14.004 23.7357 14.4287 22.817 15.278C22.3664 15.694 21.9937 16.0753 21.699 16.422C21.4217 16.7513 21.1617 17.1153 20.919 17.514C21.023 17.5487 21.1357 17.566 21.257 17.566ZM28.9417 23.26C27.9363 23.26 27.4337 22.7833 27.4337 21.83C27.4337 21.206 27.581 20.5387 27.8757 19.828C28.1877 19.1 28.6037 18.398 29.1237 17.722C29.6437 17.0287 30.2243 16.4047 30.8657 15.85C31.507 15.278 32.1657 14.8273 32.8417 14.498C33.5177 14.1513 34.1677 13.978 34.7917 13.978C35.901 13.978 36.4557 14.524 36.4557 15.616C36.4557 16.3267 36.2823 16.682 35.9357 16.682C35.6237 16.682 35.4677 16.5347 35.4677 16.24C35.4677 16.1187 35.4937 15.9973 35.5457 15.876C35.615 15.7373 35.6497 15.59 35.6497 15.434C35.6497 14.9487 35.3203 14.706 34.6617 14.706C33.6043 14.706 32.2783 15.512 30.6837 17.124C30.3023 17.5227 29.9297 17.9907 29.5657 18.528C29.2017 19.0653 28.8983 19.6113 28.6557 20.166C28.4303 20.7033 28.3177 21.2147 28.3177 21.7C28.3177 22.168 28.5777 22.402 29.0977 22.402C29.5483 22.402 30.025 22.2633 30.5277 21.986C31.0477 21.7087 31.4983 21.4227 31.8797 21.128C32.6423 20.556 33.4223 19.776 34.2197 18.788C34.341 18.6493 34.497 18.4673 34.6877 18.242C34.8783 18.0167 35.095 17.7653 35.3377 17.488C35.4243 17.4013 35.5283 17.358 35.6497 17.358C35.927 17.358 36.0657 17.4967 36.0657 17.774L35.0777 19.256C34.419 20.2267 34.0897 21.024 34.0897 21.648C34.0897 22.0987 34.3063 22.324 34.7397 22.324C35.1037 22.324 35.5023 22.2287 35.9357 22.038C36.369 21.8473 36.7243 21.6567 37.0017 21.466C37.5563 21.102 38.137 20.6513 38.7437 20.114C39.3503 19.5593 39.931 19.0047 40.4857 18.45C40.555 18.3807 40.659 18.346 40.7977 18.346C41.0577 18.346 41.1877 18.45 41.1877 18.658C41.1877 18.8487 41.0663 19.0653 40.8237 19.308C40.1303 20.0013 39.5063 20.5993 38.9517 21.102C38.397 21.5873 37.8683 21.986 37.3657 22.298C37.0363 22.4887 36.629 22.688 36.1437 22.896C35.6583 23.104 35.1037 23.208 34.4797 23.208C33.6303 23.208 33.2057 22.7573 33.2057 21.856C33.2057 21.5093 33.249 21.2233 33.3357 20.998C31.7583 22.506 30.2937 23.26 28.9417 23.26ZM38.7203 23.65C38.443 23.65 38.3043 23.5373 38.3043 23.312C38.3043 23.208 38.3303 23.104 38.3823 23C38.4516 22.896 38.5036 22.8093 38.5383 22.74L40.9043 17.956C41.9096 15.9107 42.4123 14.7753 42.4123 14.55C42.4123 14.3073 42.5336 14.186 42.7763 14.186C43.1056 14.186 43.2703 14.3507 43.2703 14.68C43.2703 14.8533 43.1923 15.1307 43.0363 15.512C42.8803 15.8933 42.681 16.3353 42.4383 16.838C42.0223 17.7393 41.6756 18.4327 41.3983 18.918C41.9183 18.3113 42.447 17.7393 42.9843 17.202C43.5216 16.6647 44.0676 16.1533 44.6223 15.668C46.269 14.2293 47.5343 13.51 48.4183 13.51C49.025 13.51 49.3283 13.796 49.3283 14.368C49.3283 14.9227 49.1463 15.2 48.7823 15.2C48.609 15.2 48.479 15.0527 48.3923 14.758C48.3403 14.55 48.219 14.446 48.0283 14.446C47.7336 14.446 47.1616 14.7667 46.3123 15.408C45.3763 16.1013 44.4316 16.9247 43.4783 17.878C42.5423 18.8313 41.5456 20.0447 40.4883 21.518L39.1883 23.338C39.119 23.4247 39.0496 23.494 38.9803 23.546C38.9283 23.6153 38.8416 23.65 38.7203 23.65ZM47.0738 23.65C46.7965 23.65 46.6578 23.5373 46.6578 23.312C46.6578 23.2253 46.6925 23.1213 46.7618 23C46.8312 22.8613 46.8918 22.7487 46.9438 22.662L49.2838 17.956C50.2892 15.9107 50.7918 14.7753 50.7918 14.55C50.7918 14.3073 50.9132 14.186 51.1558 14.186C51.4852 14.186 51.6498 14.3593 51.6498 14.706C51.6498 14.8273 51.5718 15.0873 51.4158 15.486C51.2598 15.8847 51.0605 16.3353 50.8178 16.838C50.4018 17.7393 50.0552 18.4327 49.7778 18.918C50.2978 18.3113 50.8265 17.7393 51.3638 17.202C51.9012 16.6647 52.4472 16.1533 53.0018 15.668C54.6485 14.2293 55.9138 13.51 56.7978 13.51C57.4045 13.51 57.7078 13.796 57.7078 14.368C57.7078 14.888 57.2658 16.058 56.3818 17.878C55.4978 19.7153 55.0558 20.8767 55.0558 21.362C55.0558 21.5873 55.1338 21.7 55.2898 21.7C55.3418 21.7 55.4198 21.6827 55.5238 21.648C55.6452 21.596 55.7665 21.57 55.8878 21.57C56.1825 21.57 56.3298 21.7087 56.3298 21.986C56.3298 22.3327 55.9572 22.506 55.2118 22.506C54.8652 22.506 54.6138 22.428 54.4578 22.272C54.3018 22.0987 54.2238 21.8733 54.2238 21.596C54.2238 20.764 54.6485 19.4987 55.4978 17.8C56.3472 16.1187 56.7718 15.1047 56.7718 14.758C56.7718 14.55 56.6938 14.446 56.5378 14.446C56.1565 14.446 55.5412 14.7667 54.6918 15.408C53.7732 16.1013 52.8545 16.8987 51.9358 17.8C51.0172 18.7013 50.1418 19.7327 49.3098 20.894L47.4898 23.416C47.3858 23.572 47.2472 23.65 47.0738 23.65Z" fill="#E1E1E1"/>
<path d="M35.2734 46.2344C34.7578 46.2344 34.3008 46.1094 33.9023 45.8594C33.5039 46.1094 33.1328 46.2344 32.7891 46.2344C32.4531 46.2344 32.1758 46.2031 31.957 46.1406C31.7383 46.0859 31.5469 46.0078 31.3828 45.9062C31.0469 45.7031 30.8789 45.4492 30.8789 45.1445C30.8789 44.9883 30.9219 44.8516 31.0078 44.7344C31.1797 44.8672 31.3984 44.9336 31.6641 44.9336C32.3594 44.9336 32.8398 44.6367 33.1055 44.043V38.3125C33.1055 37.9531 33.0312 37.6875 32.8828 37.5156C32.6484 37.2266 32.2461 36.9414 31.6758 36.6602C32.207 36.418 32.5508 36.2031 32.707 36.0156C32.9727 35.7109 33.1055 35.3672 33.1055 34.9844V30.0391C32.8398 29.4375 32.3594 29.1367 31.6641 29.1367C31.3984 29.1367 31.1797 29.2031 31.0078 29.3359C30.9219 29.2188 30.8789 29.0859 30.8789 28.9375C30.8789 28.7812 30.9219 28.6367 31.0078 28.5039C31.1016 28.3711 31.2266 28.2578 31.3828 28.1641C31.7422 27.9453 32.1523 27.8359 32.6133 27.8359C33.082 27.8359 33.5117 27.9648 33.9023 28.2227C34.3086 27.9648 34.7734 27.8359 35.2969 27.8359C35.8203 27.8359 36.2969 27.9883 36.7266 28.293C37.5547 27.9883 38.5117 27.8359 39.5977 27.8359C40.4023 27.8359 41.0898 27.9141 41.6602 28.0703L42.7031 28.3516C42.8281 28.3828 42.9492 28.3984 43.0664 28.3984C43.2852 28.3984 43.3945 28.2422 43.3945 27.9297C43.3945 27.8516 43.3672 27.7188 43.3125 27.5312C43.5312 27.4922 43.8086 27.4727 44.1445 27.4727C44.4805 27.4727 44.7656 27.5859 45 27.8125C45.2344 28.0312 45.3516 28.3516 45.3516 28.7734C45.3516 29.1875 45.2773 29.4922 45.1289 29.6875C45.3398 30 45.4453 30.3828 45.4453 30.8359C45.4453 31.2812 45.293 31.6562 44.9883 31.9609C45.082 32.1953 45.1289 32.4258 45.1289 32.6523C45.1289 32.8711 45.0898 33.0742 45.0117 33.2617C44.9414 33.4414 44.8516 33.5938 44.7422 33.7188C44.5234 33.9453 44.3008 34.0586 44.0742 34.0586C43.7461 34.0586 43.4492 33.9883 43.1836 33.8477C43.2773 33.6602 43.3242 33.3828 43.3242 33.0156C43.3242 32.1562 43.1094 31.4023 42.6797 30.7539C42.0938 29.8633 41.2148 29.418 40.043 29.418C39.4492 29.418 38.9102 29.5625 38.4258 29.8516C37.9492 30.1406 37.6133 30.5547 37.418 31.0938V35.6289C37.6914 35.8008 37.9453 35.8867 38.1797 35.8867C38.4219 35.8867 38.6016 35.8828 38.7188 35.875C38.8438 35.8672 38.9688 35.8516 39.0938 35.8281C39.4141 35.7812 39.6602 35.7188 39.832 35.6406C40.1602 35.4844 40.3242 35.1016 40.3242 34.4922C40.3242 34.1484 40.2422 33.8828 40.0781 33.6953C40.2344 33.5859 40.4297 33.5312 40.6641 33.5312C41.1875 33.5312 41.5664 33.7422 41.8008 34.1641C41.8867 34.3125 41.9297 34.4766 41.9297 34.6562C41.9297 34.8359 41.8828 35.0586 41.7891 35.3242C42.1094 35.6914 42.2695 36.1289 42.2695 36.6367C42.2695 37.1367 42.1094 37.5703 41.7891 37.9375C41.8828 38.2031 41.9297 38.4453 41.9297 38.6641C41.9297 38.875 41.8867 39.0781 41.8008 39.2734C41.7148 39.4688 41.6094 39.625 41.4844 39.7422C41.2422 39.9609 40.9688 40.0703 40.6641 40.0703C40.4453 40.0703 40.25 40.0078 40.0781 39.8828C40.2422 39.6094 40.3242 39.2891 40.3242 38.9219C40.3242 38.1953 40.125 37.7461 39.7266 37.5742C39.375 37.4336 38.9727 37.3633 38.5195 37.3633C38.0664 37.3633 37.6992 37.4453 37.418 37.6094V43.4688C37.8711 44.2656 38.7461 44.6641 40.043 44.6641C41.5117 44.6641 42.5117 44.2109 43.043 43.3047C43.6602 42.2656 43.9688 41.1523 43.9688 39.9648C43.9688 39.6211 43.9375 39.3555 43.875 39.168C44.0703 38.9727 44.2734 38.875 44.4844 38.875C44.6953 38.875 44.8555 38.9062 44.9648 38.9688C45.0742 39.0234 45.1719 39.0938 45.2578 39.1797C45.4453 39.3906 45.5391 39.6055 45.5391 39.8242L45.4688 40.3984C45.4688 40.5469 45.5078 40.668 45.5859 40.7617C45.7422 40.9258 45.8203 41.082 45.8203 41.2305C45.8203 41.3711 45.7734 41.543 45.6797 41.7461C45.8594 41.8477 46.0195 42 46.1602 42.2031C46.3086 42.3984 46.3828 42.6016 46.3828 42.8125C46.3828 43.2578 46.1953 43.6562 45.8203 44.0078C45.9844 44.2422 46.0664 44.582 46.0664 45.0273C46.0664 45.4648 45.9375 45.8359 45.6797 46.1406C45.4297 46.4531 45.1016 46.6094 44.6953 46.6094C44.4766 46.6094 44.25 46.5859 44.0156 46.5391C44.0469 46.3672 44.0625 46.1953 44.0625 46.0234C44.0625 45.6641 43.8984 45.4844 43.5703 45.4844C43.2031 45.4844 42.8359 45.5586 42.4688 45.707C41.6016 46.0586 40.6133 46.2344 39.5039 46.2344C38.4023 46.2344 37.4648 46.0898 36.6914 45.8008C36.2852 46.0898 35.8125 46.2344 35.2734 46.2344ZM34.2305 42.8945C34.6211 42.7461 34.8359 42.2344 34.875 41.3594C34.9219 40.4844 34.9453 39.2734 34.9453 37.7266C34.9453 36.1797 34.9414 35.1523 34.9336 34.6445C34.9336 34.1289 34.9297 33.7148 34.9219 33.4023C34.8984 32.4805 34.8086 31.9258 34.6523 31.7383C34.5039 31.543 34.3633 31.4141 34.2305 31.3516C34.2305 34.0703 34.1836 35.6172 34.0898 35.9922C33.9805 36.3047 33.7148 36.5273 33.293 36.6602C33.7617 36.8242 34.0273 37.0234 34.0898 37.2578C34.1836 37.6328 34.2305 39.0039 34.2305 41.3711V42.8945ZM37.1836 42.7773C37.1836 42.8008 37.1875 42.8203 37.1953 42.8359L37.1836 42.7773ZM50.1562 45.8594C49.7969 46.1094 49.3867 46.2344 48.9258 46.2344C48.4648 46.2344 48.1289 46.1289 47.918 45.918C47.7148 45.6992 47.6133 45.4922 47.6133 45.2969C47.6133 45.0391 47.6562 44.8516 47.7422 44.7344C47.9141 44.8672 48.1328 44.9336 48.3984 44.9336C48.8984 44.9336 49.2227 44.6914 49.3711 44.207V40.5625C49.3711 40.2188 49.2969 39.9688 49.1484 39.8125C48.9219 39.5547 48.5195 39.2852 47.9414 39.0039C48.4883 38.7539 48.8359 38.5547 48.9844 38.4062C49.2422 38.1484 49.3711 37.832 49.3711 37.457V35.7461C49.3711 35.082 49.1445 34.7227 48.6914 34.668C48.5586 34.6523 48.3906 34.6445 48.1875 34.6445C47.9844 34.6445 47.7969 34.7109 47.625 34.8438C47.5156 34.6953 47.4609 34.543 47.4609 34.3867C47.4609 34.2227 47.5 34.043 47.5781 33.8477C47.6641 33.6445 47.7891 33.4531 47.9531 33.2734C48.3672 32.8516 48.8438 32.6406 49.3828 32.6406C49.9297 32.6406 50.3828 32.7266 50.7422 32.8984C51.1719 32.4141 51.6094 32.1719 52.0547 32.1719C52.5 32.1719 52.8086 32.2773 52.9805 32.4883C53.1523 32.6914 53.2383 33.0078 53.2383 33.4375V34.5391C53.6445 33.8125 54.1992 33.2383 54.9023 32.8164C55.6055 32.3867 56.3516 32.1719 57.1406 32.1719C57.9297 32.1719 58.5625 32.2773 59.0391 32.4883C59.5234 32.6914 59.9219 32.9844 60.2344 33.3672C60.8438 34.125 61.1484 35.2266 61.1484 36.6719V37.4453C61.1484 37.8203 61.2305 38.0898 61.3945 38.2539C61.6367 38.5039 62.0312 38.7539 62.5781 39.0039C61.9922 39.293 61.625 39.5117 61.4766 39.6602C61.2578 39.9023 61.1484 40.1953 61.1484 40.5391V44.207C61.2969 44.6914 61.6211 44.9336 62.1211 44.9336C62.3867 44.9336 62.6055 44.8672 62.7773 44.7344C62.8633 44.8516 62.9062 45.0234 62.9062 45.25C62.9062 45.4766 62.8008 45.6992 62.5898 45.918C62.3867 46.1289 62.0703 46.2344 61.6406 46.2344C61.2109 46.2344 60.8203 46.1133 60.4688 45.8711C60.1562 46.1133 59.7891 46.2344 59.3672 46.2344C58.9531 46.2344 58.582 46.1172 58.2539 45.8828C57.9102 46.1172 57.543 46.2344 57.1523 46.2344C56.7617 46.2344 56.4531 46.1367 56.2266 45.9414C56 45.7461 55.8867 45.4648 55.8867 45.0977C55.8867 44.9258 55.9453 44.7891 56.0625 44.6875C56.2422 44.8281 56.4219 44.8984 56.6016 44.8984C56.9453 44.8984 57.1914 44.707 57.3398 44.3242V37.3398C57.3398 35.8242 56.9688 34.9453 56.2266 34.7031C55.9844 34.625 55.7227 34.5859 55.4414 34.5859C55.1602 34.5859 54.8984 34.6445 54.6562 34.7617C54.4141 34.8711 54.1953 35.0273 54 35.2305C53.5703 35.6836 53.3164 36.2227 53.2383 36.8477V44.3242C53.3867 44.707 53.6328 44.8984 53.9766 44.8984C54.1562 44.8984 54.3359 44.8281 54.5156 44.6875C54.6328 44.7891 54.6914 44.9766 54.6914 45.25C54.6914 45.5156 54.5781 45.7461 54.3516 45.9414C54.125 46.1367 53.8242 46.2344 53.4492 46.2344C53.082 46.2344 52.7461 46.1172 52.4414 45.8828C52.1445 46.1172 51.7812 46.2344 51.3516 46.2344C50.9219 46.2344 50.5234 46.1094 50.1562 45.8594ZM58.4648 42.8945C58.8555 42.7461 59.0703 42.2344 59.1094 41.3594C59.1562 40.4844 59.1797 39.6602 59.1797 38.8867C59.1797 38.1133 59.1484 37.4766 59.0859 36.9766C59.0234 36.4688 58.9336 36.0742 58.8164 35.793C58.6992 35.5039 58.5586 35.2969 58.3945 35.1719C58.2383 35.0391 58.0664 34.9258 57.8789 34.832C58.1758 35.5352 58.3477 36.1758 58.3945 36.7539C58.4414 37.332 58.4648 37.8906 58.4648 38.4297V42.8945ZM51.1641 40.3047C51.1719 40.0469 51.1758 39.832 51.1758 39.6602C51.1836 39.4805 51.1875 39.3359 51.1875 39.2266C51.1875 39.1172 51.1875 39.0078 51.1875 38.8984C51.1875 38.7812 51.1836 38.6289 51.1758 38.4414C51.1758 38.2539 51.1719 38.0469 51.1641 37.8203C51.1641 37.5938 51.1562 37.3711 51.1406 37.1523C51.1172 36.6133 51.082 36.2422 51.0352 36.0391C50.9414 35.5859 50.7617 35.2734 50.4961 35.1016V35.8633C50.4961 37.1758 50.4648 37.9492 50.4023 38.1836C50.3477 38.4102 50.2539 38.582 50.1211 38.6992C49.9961 38.8164 49.8086 38.918 49.5586 39.0039C50.0273 39.168 50.293 39.3633 50.3555 39.5898C50.4492 39.9648 50.4961 40.8086 50.4961 42.1211V42.8828C50.8555 42.6484 51.0625 42.1719 51.1172 41.4531C51.1484 40.9453 51.1641 40.5625 51.1641 40.3047ZM65.6719 46.457C65.1094 45.9414 64.8281 45.3008 64.8281 44.5352C64.8281 43.3945 65.5039 42.457 66.8555 41.7227C65.9727 41.1055 65.3281 40.1289 64.9219 38.793C64.7891 38.3789 64.6562 38.0977 64.5234 37.9492C64.3281 37.7148 63.9922 37.4805 63.5156 37.2461C63.9062 37.0664 64.2031 36.8359 64.4062 36.5547C64.6172 36.2734 64.7969 35.9062 64.9453 35.4531C65.1016 35 65.3164 34.5664 65.5898 34.1523C65.8711 33.7383 66.2305 33.375 66.668 33.0625C67.6289 32.3906 68.8672 32.0547 70.3828 32.0547C70.8672 32.0547 71.3711 32.1055 71.8945 32.207C72.0039 31.3555 72.3828 30.6328 73.0312 30.0391C73.6719 29.4375 74.4219 29.1367 75.2812 29.1367C76.2891 29.1367 77.1367 29.3984 77.8242 29.9219C78.1992 30.2031 78.5742 30.3086 78.9492 30.2383C78.9805 30.8633 78.7383 31.2656 78.2227 31.4453C78.1367 32.5 77.6797 33.0273 76.8516 33.0273C76.5234 33.0273 76.3242 33.0039 76.2539 32.957C76.3711 32.8555 76.4297 32.7266 76.4297 32.5703C76.4297 32.4062 76.3633 32.2656 76.2305 32.1484C76.0664 32.4531 75.6992 32.6055 75.1289 32.6055C74.8164 32.6055 74.5703 32.457 74.3906 32.1602C74.6875 32.0664 74.9219 31.9258 75.0938 31.7383C75.2656 31.543 75.3516 31.3633 75.3516 31.1992C75.3516 30.7695 75.125 30.5547 74.6719 30.5547C73.7969 30.5547 73.2852 31.2344 73.1367 32.5938C74.5586 33.2031 75.4648 34.1602 75.8555 35.4648C76.1133 36.3477 76.5898 36.9414 77.2852 37.2461C76.6758 37.5508 76.2734 37.8906 76.0781 38.2656C76 38.4141 75.9297 38.5898 75.8672 38.793C75.4453 40.1211 74.7852 41.1016 73.8867 41.7344C72.9883 42.3594 71.832 42.6719 70.418 42.6719C69.5195 42.6719 68.7383 42.5625 68.0742 42.3438C67.8164 42.5078 67.6875 42.6914 67.6875 42.8945C67.6875 43.0898 67.7266 43.2578 67.8047 43.3984C67.8828 43.5312 68.0234 43.6523 68.2266 43.7617C68.625 43.9727 69.3828 44.1602 70.5 44.3242C71.0078 44.4258 71.5312 44.0977 72.0703 43.3398C72.1016 43.7383 72.1914 44.0391 72.3398 44.2422C72.4883 44.4375 72.6523 44.5469 72.832 44.5703C74.9883 44.8906 76.3828 45.5938 77.0156 46.6797C77.2344 47.0469 77.3438 47.5156 77.3438 48.0859C77.3438 48.6641 77.1602 49.2227 76.793 49.7617C76.4258 50.3086 75.9297 50.7734 75.3047 51.1562C74.0078 51.9375 72.4141 52.3281 70.5234 52.3281C68.3047 52.3281 66.6094 51.9648 65.4375 51.2383C64.4297 50.6055 63.9258 49.7969 63.9258 48.8125C63.9258 48.1562 64.2578 47.5352 64.9219 46.9492C65.1406 46.7617 65.3906 46.5977 65.6719 46.457ZM69.2812 40.5391C69.4531 40.7812 69.625 40.9375 69.7969 41.0078C69.9688 41.0703 70.168 41.1016 70.3945 41.1016C70.6289 41.1016 70.832 41.0703 71.0039 41.0078C71.1758 40.9375 71.3203 40.8203 71.4375 40.6562C71.6641 40.3359 71.7773 39.7969 71.7773 39.0391V35.793C71.7773 35.0352 71.6914 34.5352 71.5195 34.293C71.3477 34.0508 71.1758 33.8984 71.0039 33.8359C70.832 33.7656 70.6289 33.7305 70.3945 33.7305C70.168 33.7305 69.9688 33.7656 69.7969 33.8359C69.625 33.8984 69.4844 34.0078 69.375 34.1641C69.1406 34.4922 69.0234 35.0352 69.0234 35.793V39.0391C69.0234 39.7969 69.1094 40.2969 69.2812 40.5391ZM72.9141 40.457C73.2734 40.332 73.4805 39.9453 73.5352 39.2969C73.5898 38.6875 73.6172 38.0039 73.6172 37.2461C73.6172 36.0742 73.5859 35.3242 73.5234 34.9961C73.4297 34.5586 73.2266 34.2734 72.9141 34.1406V40.457ZM66.8086 40.457C66.9648 40.3398 67.043 40.2031 67.043 40.0469C67.043 39.8438 67.0156 39.6484 66.9609 39.4609C66.75 38.7422 66.6445 38.0039 66.6445 37.2461C66.6445 36.4961 66.75 35.7617 66.9609 35.043C67.0156 34.8555 67.043 34.707 67.043 34.5977V34.3164C67.043 34.2461 67.0117 34.1875 66.9492 34.1406C66.6289 34.5312 66.3945 34.9766 66.2461 35.4766C66.1055 35.9766 65.9922 36.418 65.9062 36.8008C65.875 36.918 65.6562 37.0664 65.25 37.2461C65.6641 37.4492 65.8828 37.6016 65.9062 37.7031L66.1406 38.6875C66.3438 39.5156 66.5664 40.1055 66.8086 40.457ZM66.2109 44.6289C66.1406 44.6992 66.1055 44.8008 66.1055 44.9336C66.1367 45.7773 67.3398 46.4141 69.7148 46.8438C69.9883 46.9062 70.1836 47.2031 70.3008 47.7344C70.3398 47.5625 70.4922 47.418 70.7578 47.3008C71.0312 47.1914 71.2148 47.1406 71.3086 47.1484C72.4883 47.2891 73.2852 47.4219 73.6992 47.5469C74.4336 47.7734 74.9688 48.1094 75.3047 48.5547C75.3984 48.4453 75.4453 48.3047 75.4453 48.1328C75.4453 47.9609 75.3594 47.7852 75.1875 47.6055C75.0156 47.4336 74.7344 47.2812 74.3438 47.1484C73.6719 46.9062 72.7617 46.7188 71.6133 46.5859C70.4648 46.4531 69.6562 46.3359 69.1875 46.2344C68.7266 46.1328 68.3008 46.0078 67.9102 45.8594C67.0586 45.5234 66.4922 45.1133 66.2109 44.6289ZM66.8438 47.207C66.2891 47.4492 66.0117 47.9023 66.0117 48.5664C66.0117 49.0977 66.4141 49.5781 67.2188 50.0078C68.1172 50.4922 69.2773 50.7344 70.6992 50.7344C72.4492 50.7344 73.5859 50.4336 74.1094 49.832C74.2578 49.668 74.332 49.4922 74.332 49.3047C74.332 49.125 74.2422 48.9648 74.0625 48.8242C73.8906 48.6836 73.6641 48.5703 73.3828 48.4844C72.9688 48.3438 72.3164 48.2227 71.4258 48.1211C70.9961 48.0742 70.4648 48.3906 69.832 49.0703C69.832 48.6328 69.7578 48.3164 69.6094 48.1211C69.4688 47.9258 69.3281 47.8203 69.1875 47.8047C68.2812 47.6875 67.5 47.4883 66.8438 47.207ZM80.8008 45.8594C80.4414 46.1094 80.0312 46.2344 79.5703 46.2344C79.1172 46.2344 78.7773 46.1328 78.5508 45.9297C78.332 45.7266 78.2227 45.5312 78.2227 45.3438C78.2227 45.0859 78.2773 44.8828 78.3867 44.7344C78.5586 44.8672 78.7773 44.9336 79.043 44.9336C79.4961 44.9336 79.8203 44.6719 80.0156 44.1484V40.5391C80.0156 40.1953 79.9453 39.9453 79.8047 39.7891C79.5781 39.5547 79.1719 39.293 78.5859 39.0039C79.1328 38.7539 79.4844 38.5508 79.6406 38.3945C79.8906 38.1367 80.0156 37.8203 80.0156 37.4453V30.8242C80.0156 29.9336 79.6523 29.4883 78.9258 29.4883C78.6602 29.4883 78.4414 29.5547 78.2695 29.6875C78.1602 29.5391 78.1055 29.3867 78.1055 29.2305C78.1055 29.0664 78.1445 28.9102 78.2227 28.7617C78.3086 28.6133 78.4375 28.4766 78.6094 28.3516C78.9766 28.0859 79.4414 27.9531 80.0039 27.9531C80.5664 27.9531 81.0039 27.9883 81.3164 28.0586C81.7461 27.5195 82.2305 27.25 82.7695 27.25C83.5508 27.25 83.9414 27.6719 83.9414 28.5156V37.4453C83.9414 37.8203 84.0234 38.0898 84.1875 38.2539C84.4297 38.5039 84.8242 38.7539 85.3711 39.0039C84.7852 39.293 84.418 39.5117 84.2695 39.6602C84.0508 39.9023 83.9414 40.1953 83.9414 40.5391V44.1484C84.1289 44.6719 84.4531 44.9336 84.9141 44.9336C85.1797 44.9336 85.3984 44.8672 85.5703 44.7344C85.6797 44.8828 85.7344 45.0703 85.7344 45.2969C85.7344 45.5156 85.6211 45.7266 85.3945 45.9297C85.1758 46.1328 84.8438 46.2344 84.3984 46.2344C83.9531 46.2344 83.5391 46.1094 83.1562 45.8594C82.8359 46.1094 82.4531 46.2344 82.0078 46.2344C81.5703 46.2344 81.168 46.1094 80.8008 45.8594ZM81.1406 42.8828C81.4922 42.6562 81.6992 42.1602 81.7617 41.3945C81.7852 41.0586 81.8008 40.6836 81.8086 40.2695C81.8164 39.8555 81.8203 39.5625 81.8203 39.3906C81.8281 39.2109 81.832 39.0781 81.832 38.9922V37.9375C81.832 37.6484 81.8281 37.3203 81.8203 36.9531V35.8047C81.7969 33.7344 81.7578 32.582 81.7031 32.3477C81.5938 31.8555 81.4062 31.5234 81.1406 31.3516V35.3008C81.1406 36.918 81.1211 37.8203 81.082 38.0078C81.0508 38.1875 81.0234 38.3203 81 38.4062C80.9297 38.6484 80.6641 38.8477 80.2031 39.0039C80.6719 39.168 80.9375 39.3633 81 39.5898C81.0938 39.9648 81.1406 40.8086 81.1406 42.1211V42.8828ZM90.5039 30.4961C90.1055 30.4961 89.7188 30.3906 89.3438 30.1797C88.9766 29.9688 88.6953 29.6875 88.5 29.3359C88.2891 28.9766 88.0078 28.7031 87.6562 28.5156C87.5469 28.4609 87.4219 28.4023 87.2812 28.3398L87.6797 28.0938C88.0547 27.8594 88.332 27.5742 88.5117 27.2383C88.6914 26.9023 88.9609 26.6406 89.3203 26.4531C89.6875 26.2578 90.082 26.1602 90.5039 26.1602C91.3789 26.1602 92.0117 26.5273 92.4023 27.2617C92.668 27.7461 93.0781 28.1055 93.6328 28.3398C93.5156 28.4102 93.3984 28.4727 93.2812 28.5273C93.1719 28.582 93.0664 28.6445 92.9648 28.7148C92.7383 28.8711 92.5352 29.1016 92.3555 29.4062C92.1836 29.7109 91.9297 29.9688 91.5938 30.1797C91.2656 30.3906 90.9023 30.4961 90.5039 30.4961ZM89.8828 29.0664C89.8359 28.9805 89.7969 28.8828 89.7656 28.7734C89.7422 28.6562 89.7305 28.4531 89.7305 28.1641C89.7305 27.875 89.8789 27.5078 90.1758 27.0625C89.8867 27.0625 89.6836 27.1172 89.5664 27.2266C89.4492 27.3281 89.3594 27.418 89.2969 27.4961C89.2422 27.5664 89.1914 27.6406 89.1445 27.7188C89.1055 27.7891 89.0547 27.8672 88.9922 27.9531C88.8438 28.1641 88.7227 28.293 88.6289 28.3398C88.7539 28.4102 88.8672 28.5234 88.9688 28.6797C89.0781 28.8281 89.2031 28.9844 89.3438 29.1484C89.5547 29.4062 89.832 29.5352 90.1758 29.5352C90.1289 29.4492 90.0781 29.3711 90.0234 29.3008C89.9766 29.2227 89.9297 29.1445 89.8828 29.0664ZM89.332 45.8594C88.9727 46.1094 88.5625 46.2344 88.1016 46.2344C87.6484 46.2344 87.3086 46.1328 87.082 45.9297C86.8633 45.7266 86.7539 45.5312 86.7539 45.3438C86.7539 45.0859 86.8086 44.8828 86.918 44.7344C87.0898 44.8672 87.3438 44.9336 87.6797 44.9336C88.0156 44.9336 88.3047 44.7148 88.5469 44.2773V40.5391C88.5469 40.1953 88.4766 39.9453 88.3359 39.7891C88.1094 39.5547 87.7031 39.293 87.1172 39.0039C87.6641 38.7539 88.0117 38.5547 88.1602 38.4062C88.418 38.1484 88.5469 37.832 88.5469 37.457V35.7461C88.5469 35.082 88.3203 34.7227 87.8672 34.668C87.7344 34.6523 87.5664 34.6445 87.3633 34.6445C87.1602 34.6445 86.9727 34.7109 86.8008 34.8438C86.6914 34.6953 86.6367 34.543 86.6367 34.3867C86.6367 34.2227 86.6758 34.043 86.7539 33.8477C86.8398 33.6445 86.9688 33.4531 87.1406 33.2734C87.5469 32.8516 88.0156 32.6406 88.5469 32.6406C89.0781 32.6406 89.5586 32.7344 89.9883 32.9219C90.3711 32.4219 90.8086 32.1719 91.3008 32.1719C92.1055 32.1719 92.5078 32.5938 92.5078 33.4375V37.457C92.5078 37.832 92.5898 38.1016 92.7539 38.2656C92.9961 38.5078 93.3906 38.7539 93.9375 39.0039C93.3516 39.293 92.9844 39.5117 92.8359 39.6602C92.6172 39.9023 92.5078 40.1953 92.5078 40.5391V44.3125C92.7656 44.7266 93.0586 44.9336 93.3867 44.9336C93.7148 44.9336 93.9648 44.8672 94.1367 44.7344C94.2461 44.8828 94.3008 45.0703 94.3008 45.2969C94.3008 45.5156 94.1875 45.7266 93.9609 45.9297C93.7422 46.1328 93.4102 46.2344 92.9648 46.2344C92.5195 46.2344 92.1055 46.1094 91.7227 45.8594C91.4023 46.1094 91.0156 46.2344 90.5625 46.2344C90.1094 46.2344 89.6992 46.1094 89.332 45.8594ZM90.3398 40.3047C90.3477 40.0391 90.3516 39.8164 90.3516 39.6367C90.3594 39.457 90.3633 39.3125 90.3633 39.2031V38.8867C90.3633 38.7695 90.3594 38.6172 90.3516 38.4297C90.3516 38.2422 90.3477 38.0352 90.3398 37.8086C90.3398 37.582 90.3359 37.3594 90.3281 37.1406C90.2969 36.6016 90.2578 36.2305 90.2109 36.0273C90.1172 35.5742 89.9375 35.2617 89.6719 35.0898V35.8516C89.6719 37.1719 89.6406 37.9492 89.5781 38.1836C89.5234 38.4102 89.4297 38.582 89.2969 38.6992C89.1719 38.8086 88.9844 38.9062 88.7344 38.9922C89.2031 39.1562 89.4688 39.3555 89.5312 39.5898C89.625 39.9648 89.6719 40.8125 89.6719 42.1328V42.8945C90.0312 42.6602 90.2344 42.1797 90.2812 41.4531C90.3203 40.9531 90.3398 40.5703 90.3398 40.3047ZM97.9219 45.7188C97.3906 46.2266 96.8789 46.4805 96.3867 46.4805C96.1133 46.4805 95.9258 46.3789 95.8242 46.1758C96.0039 45.9961 96.0938 45.8164 96.0938 45.6367C96.0938 45.457 96.0664 45.3203 96.0117 45.2266L95.8594 44.957L96.0469 45.3086C95.8594 45.2227 95.7148 45.0781 95.6133 44.875C95.5117 44.6719 95.4609 44.4258 95.4609 44.1367C95.4609 43.8398 95.625 43.5039 95.9531 43.1289C95.7969 42.9102 95.7188 42.668 95.7188 42.4023C95.7188 42.1367 95.7617 41.918 95.8477 41.7461C95.9414 41.5664 96.0586 41.4062 96.1992 41.2656C96.5117 40.9688 96.8438 40.8203 97.1953 40.8203C97.4297 40.8203 97.5977 40.9023 97.6992 41.0664C97.4883 41.293 97.3828 41.6523 97.3828 42.1445C97.3828 42.6289 97.4648 43.043 97.6289 43.3867C97.8008 43.7305 98.0312 44.0234 98.3203 44.2656C98.9297 44.7812 99.6797 45.0391 100.57 45.0391C101.562 45.0391 102.25 44.6758 102.633 43.9492C102.742 43.7305 102.797 43.5117 102.797 43.293C102.797 43.0664 102.746 42.8672 102.645 42.6953C102.543 42.5156 102.41 42.3438 102.246 42.1797C101.973 41.9141 101.555 41.6094 100.992 41.2656C100.453 40.8828 99.8164 40.6914 99.082 40.6914C98.6055 40.6914 98.2852 40.7305 98.1211 40.8086C98.2227 40.5742 98.2734 40.3398 98.2734 40.1055C98.2734 39.8711 98.1172 39.6172 97.8047 39.3438C97.4922 39.0625 97.2109 38.7812 96.9609 38.5C96.7188 38.2188 96.5234 37.9375 96.375 37.6562C96.0781 37.125 95.9297 36.5625 95.9297 35.9688C95.9297 35.375 96.0508 34.8516 96.293 34.3984C96.543 33.9375 96.8906 33.543 97.3359 33.2148C98.2656 32.5195 99.457 32.1719 100.91 32.1719C101.613 32.1719 102.094 32.2031 102.352 32.2656C102.617 32.3281 102.828 32.3867 102.984 32.4414C103.195 32.5195 103.453 32.5586 103.758 32.5586C104.062 32.5586 104.273 32.4922 104.391 32.3594C104.516 32.2266 104.578 32.1055 104.578 31.9961C104.578 31.8789 104.566 31.7891 104.543 31.7266C104.59 31.7109 104.66 31.7031 104.754 31.7031C104.848 31.7031 104.953 31.7305 105.07 31.7852C105.195 31.8398 105.305 31.9141 105.398 32.0078C105.586 32.2188 105.68 32.4453 105.68 32.6875C105.68 32.9219 105.633 33.1016 105.539 33.2266C105.758 33.4297 105.867 33.7188 105.867 34.0938C105.867 34.4688 105.711 34.7852 105.398 35.043C105.469 35.1836 105.504 35.3555 105.504 35.5586C105.504 35.7617 105.395 35.957 105.176 36.1445C104.957 36.332 104.75 36.4258 104.555 36.4258C104.219 36.4258 103.992 36.3828 103.875 36.2969C103.977 36.0469 104.027 35.7773 104.027 35.4883C104.027 35.1914 103.949 34.9102 103.793 34.6445C103.637 34.3789 103.438 34.1641 103.195 34C102.742 33.6875 102.203 33.5312 101.578 33.5312C100.789 33.5312 100.258 33.7812 99.9844 34.2812C99.8984 34.4375 99.8555 34.6094 99.8555 34.7969C99.8555 34.9766 99.8789 35.1445 99.9258 35.3008C99.9805 35.4492 100.066 35.6016 100.184 35.7578C100.41 36.0625 100.73 36.3516 101.145 36.625C101.684 36.9766 102.059 37.1523 102.27 37.1523C102.723 37.1523 103.117 37.043 103.453 36.8242C103.359 37.1992 103.312 37.4609 103.312 37.6094C103.312 37.8359 103.492 38.0977 103.852 38.3945C104.859 39.0898 105.547 39.7266 105.914 40.3047C106.266 40.8672 106.441 41.4922 106.441 42.1797C106.441 42.8672 106.289 43.457 105.984 43.9492C105.68 44.4336 105.266 44.8516 104.742 45.2031C103.656 45.9297 102.34 46.293 100.793 46.293C99.7383 46.293 98.7812 46.1016 97.9219 45.7188ZM97.5117 34.9844C97.2852 35.0938 97.1719 35.3984 97.1719 35.8984C97.1719 36.3906 97.332 36.8633 97.6523 37.3164C97.9727 37.7617 98.4805 38.2656 99.1758 38.8281C99.3398 38.9531 99.4219 39.0742 99.4219 39.1914C99.4219 39.3711 99.4062 39.5156 99.375 39.625C99.4688 39.6016 99.6328 39.5781 99.8672 39.5547C100.438 39.5 101.145 39.7656 101.988 40.3516C103.332 41.1797 104.004 42.0508 104.004 42.9648C104.004 43.3086 103.957 43.5664 103.863 43.7383C104.145 43.6836 104.359 43.4453 104.508 43.0234C104.547 42.8984 104.566 42.7695 104.566 42.6367C104.566 42.0039 104.223 41.3633 103.535 40.7148C102.855 40.0586 101.875 39.4258 100.594 38.8164C98.4688 37.7383 97.4414 36.4609 97.5117 34.9844ZM110.273 45.8594C109.914 46.1094 109.504 46.2344 109.043 46.2344C108.59 46.2344 108.25 46.1328 108.023 45.9297C107.805 45.7266 107.695 45.5312 107.695 45.3438C107.695 45.0859 107.75 44.8828 107.859 44.7344C108.031 44.8672 108.25 44.9336 108.516 44.9336C108.969 44.9336 109.293 44.6719 109.488 44.1484V40.5391C109.488 40.1484 109.414 39.8828 109.266 39.7422C109.086 39.5547 108.684 39.3086 108.059 39.0039C108.605 38.7539 108.953 38.5547 109.102 38.4062C109.359 38.1484 109.488 37.832 109.488 37.457V30.8242C109.488 29.9336 109.125 29.4883 108.398 29.4883C108.133 29.4883 107.914 29.5547 107.742 29.6875C107.633 29.5391 107.578 29.3867 107.578 29.2305C107.578 29.0664 107.617 28.9102 107.695 28.7617C107.781 28.6133 107.906 28.4766 108.07 28.3516C108.445 28.0859 108.914 27.9531 109.477 27.9531C110.039 27.9531 110.477 27.9883 110.789 28.0586C111.219 27.5195 111.703 27.25 112.242 27.25C113.047 27.25 113.449 27.6719 113.449 28.5156V34.293C114.207 32.8789 115.445 32.1719 117.164 32.1719C119.133 32.1719 120.387 33.043 120.926 34.7852C121.098 35.3398 121.184 35.9688 121.184 36.6719V37.457C121.184 37.8242 121.266 38.0898 121.43 38.2539C121.672 38.4961 122.066 38.7422 122.613 38.9922C122.02 39.2812 121.652 39.5039 121.512 39.6602C121.293 39.9023 121.184 40.1953 121.184 40.5391V44.207C121.332 44.6914 121.656 44.9336 122.156 44.9336C122.422 44.9336 122.641 44.8672 122.812 44.7344C122.898 44.8516 122.941 45.0234 122.941 45.25C122.941 45.4766 122.836 45.6992 122.625 45.918C122.422 46.1289 122.094 46.2344 121.641 46.2344C121.188 46.2344 120.77 46.1094 120.387 45.8594C120.035 46.1094 119.637 46.2344 119.191 46.2344C118.754 46.2344 118.371 46.1172 118.043 45.8828C117.738 46.1172 117.395 46.2344 117.012 46.2344C116.637 46.2344 116.336 46.1367 116.109 45.9414C115.883 45.7461 115.77 45.4648 115.77 45.0977C115.77 44.9258 115.828 44.7891 115.945 44.6875C116.125 44.8281 116.305 44.8984 116.484 44.8984C116.828 44.8984 117.074 44.707 117.223 44.3242V37.3398C117.223 35.8164 116.852 34.9375 116.109 34.7031C115.875 34.625 115.621 34.5859 115.348 34.5859C114.535 34.5859 113.969 35.0156 113.648 35.875C113.547 36.1406 113.48 36.4297 113.449 36.7422V44.3242C113.598 44.707 113.844 44.8984 114.188 44.8984C114.367 44.8984 114.547 44.8281 114.727 44.6875C114.844 44.7891 114.902 44.9766 114.902 45.25C114.902 45.5156 114.789 45.7461 114.562 45.9414C114.336 46.1367 114.031 46.2344 113.648 46.2344C113.266 46.2344 112.922 46.1172 112.617 45.8828C112.297 46.1172 111.918 46.2344 111.48 46.2344C111.043 46.2344 110.641 46.1094 110.273 45.8594ZM110.59 42.8828C110.941 42.6562 111.148 42.1602 111.211 41.3945C111.234 41.0586 111.25 40.6836 111.258 40.2695C111.266 39.8555 111.27 39.5625 111.27 39.3906C111.277 39.2109 111.281 39.0781 111.281 38.9922V37.9375C111.281 37.6484 111.281 37.3203 111.281 36.9531L111.258 35.8047C111.242 33.7344 111.207 32.582 111.152 32.3477C111.043 31.8555 110.855 31.5234 110.59 31.3516V35.3008C110.59 36.918 110.57 37.8203 110.531 38.0078C110.5 38.1875 110.473 38.3203 110.449 38.4062C110.379 38.6484 110.113 38.8477 109.652 39.0039C110.121 39.168 110.387 39.3633 110.449 39.5898C110.543 39.9648 110.59 40.8086 110.59 42.1211V42.8828ZM118.336 42.8945C118.727 42.7461 118.945 42.2344 118.992 41.3594C119.031 40.4844 119.051 39.6836 119.051 38.957C119.051 38.2227 119.027 37.625 118.98 37.1641C118.934 36.7031 118.855 36.3398 118.746 36.0742C118.645 35.8008 118.512 35.5977 118.348 35.4648C118.184 35.3242 117.984 35.1953 117.75 35.0781C118.047 35.7812 118.219 36.4219 118.266 37C118.312 37.5781 118.336 38.1367 118.336 38.6758V42.8945Z" fill="#E1E1E1"/>
</svg>
